<?xml version="1.0" standalone="no"?><svg xmlns="http://www.w3.org/2000/svg" viewBox="0 0 1440 320"><path fill="#7E60BF" fill-opacity="1" d="M0,96L34.3,90.7C68.6,85,137,75,206,90.7C274.3,107,343,149,411,176C480,203,549,213,617,181.3C685.7,149,754,75,823,58.7C891.4,43,960,85,1029,106.7C1097.1,128,1166,128,1234,133.3C1302.9,139,1371,149,1406,154.7L1440,160L1440,320L1405.7,320C1371.4,320,1303,320,1234,320C1165.7,320,1097,320,1029,320C960,320,891,320,823,320C754.3,320,686,320,617,320C548.6,320,480,320,411,320C342.9,320,274,320,206,320C137.1,320,69,320,34,320L0,320Z"></path></svg>